<?xml version="1.0" encoding="UTF-8"?>
<!DOCTYPE svg PUBLIC "-//W3C//DTD SVG 1.1//EN" "http://www.w3.org/Graphics/SVG/1.1/DTD/svg11.dtd">
<!-- Creator: CorelDRAW -->
<svg xmlns="http://www.w3.org/2000/svg" xml:space="preserve" width="255.46mm" height="141.19mm" version="1.1" style="shape-rendering:geometricPrecision; text-rendering:geometricPrecision; image-rendering:optimizeQuality; fill-rule:evenodd; clip-rule:evenodd"
viewBox="0 0 25546 14119"
 xmlns:xlink="http://www.w3.org/1999/xlink"
 xmlns:xodm="http://www.corel.com/coreldraw/odm/2003">
 <defs>
  <style type="text/css">
   <![CDATA[
    .fil1 {fill:#EC2150}
    .fil0 {fill:#FEFEFE}
   ]]>
  </style>
 </defs>
 <g id="Camada_x0020_1">
  <metadata id="CorelCorpID_0Corel-Layer"/>
  <g id="_2450506861680">
   <path class="fil0" d="M16656.81 4352.28l-159.51 -534.59c-123.97,-437.08 -298.52,-931.58 -416.08,-1361.49l-744.89 -2437.82 -1423.79 -1.26c-184.46,-0.72 -108.75,-1.44 63.48,515.1l1129.84 3339.5c187.12,535.16 378.73,1167.07 567,1684.59 59.78,164.31 104.19,306.69 162.31,481.01l161.4 481.91 1252.76 0 314.74 -904.18c20.32,-53.52 26.04,-91.51 42.6,-143.61 25.87,-81.45 58.36,-155.98 89.19,-249.4l719.45 -2090.82c29.5,-97.11 60.73,-163.73 93.25,-262.27 27.94,-84.65 147.19,-478.06 196.7,-514.32l531.01 1551.29c18.65,54.39 29.5,74.32 44.58,124.71 125.17,418.22 348.23,997.89 493.11,1436.84l312.19 906.71c18.6,62.95 36.57,89.69 41.18,145.05l1252.76 0 1242.35 -3599.44c22.43,-63.33 30.4,-102.57 52.19,-167.9l119.05 -324.07c30.89,-83.28 30.07,-90.24 -73.8,-91.66l-1322.86 1.54c-57.54,247.01 -385.92,1209.68 -476.17,1504.55l-149.11 477.29c-15.82,34.44 -5.63,14.89 -18.03,32.74 -20.53,-88.12 -57.51,-180.9 -86.92,-268.6l-806.37 -2444.05c-74.03,-222.14 -497.18,-1546.48 -545.7,-1638.18l-1218.92 0 -1385.99 4217.6 -53 133.23zm-8143.01 2116.17l4909.51 0 0 -1269.7 -3504.37 0 0 -3893.74 3453.58 0 0 -1235.84c0,-39.01 -11.78,-50.79 -50.79,-50.79l-4807.93 0 0 6450.07zm-6704.01 0l1405.13 0 0 -4063.03 96.7 123.38 2818.94 3698.85c40.31,45.59 154.19,240.8 216.29,240.8l1185.06 0 0 -6450.07 -1405.15 0 0 3944.53 -1695.24 -2215.42c-302.22,-376.3 -651.62,-883.01 -951.08,-1249.74 -73.05,-89.45 -331.62,-479.37 -400.95,-479.37l-1269.7 0 0 6450.07z"/>
   <path class="fil0" d="M19805.67 13900.43c0,39 11.78,50.78 50.78,50.78l1371.28 0 0 -4063.04c50.63,33.91 492.18,639.15 582.91,754.51l486.15 631.18c35.78,45.67 64.21,93.06 98.86,138.15l338.85 439.9c16.93,23.7 28.77,45.44 48.21,70.3l1364.28 1784.57c35.57,47.14 153.25,244.43 212.66,244.43l1185.06 0 0 -6450.07 -1405.13 0 0 3944.53 -2918.88 -3835.93c-17.95,-24.31 -28.07,-36.24 -45.02,-56.55 -26.26,-31.46 -16.81,-52.05 -66.46,-52.05l-1303.55 0 0 6399.29zm-11308.8 220.07l1439 0 0 -5332.74 998.82 0c344.67,0 642.87,57.67 849.27,200.36 344.59,238.18 369.65,508.37 369.65,883.12 0,424.94 -404.22,785 -869.87,856.92 -87.51,13.52 -196.68,-22.92 -196.68,57.27l0 1185.05c0,76.54 52.96,35.63 220.53,34.32 223.77,-1.76 442.62,-66.78 647.33,-114.51 258.08,-60.17 513.46,-178.52 727.11,-322.5l177.87 -126.86c631.32,-530.81 886.74,-1421.51 695.58,-2226.67 -18.27,-76.97 -26.77,-151.23 -56.84,-230.95 -183.73,-487.03 -366.49,-748.99 -779.05,-1049.32 -351.95,-256.21 -965.3,-432.85 -1429.38,-432.85l-2793.34 0 0 6619.36zm-7364.25 -4435.48l1540.57 0c66.75,0 88.38,-100.73 181.2,-225.09 310.51,-415.99 814.36,-726.92 1342.27,-740.05 262.51,-6.52 422.57,-27.97 726.17,69.84 91.83,29.59 211.7,63.69 295.31,110.99 94.19,53.32 182.97,99.7 265.27,157.96 762.55,539.82 1033.73,1594.56 679.87,2474.3 -130.02,323.27 -225.76,431.29 -428.53,654.94 -48.17,50.08 -134.66,133.67 -186.79,168.74 -434.22,292.13 -664.68,375.65 -1249.56,375.65 -497.38,0 -913.2,-224.12 -1231.51,-529.14l-290.88 -352.44c-20.89,-36.78 -32.54,-83.4 -85.89,-83.4l-1574.43 16.93c62.66,130.6 85.82,273.33 191.75,468.5 24.95,45.96 39.84,63.32 62.39,106.9 19.87,38.37 32.38,70.29 57.46,111.83 284.28,470.75 725.14,880.53 1206.64,1146.55 1018.69,562.83 2351.64,587.54 3374.81,62.78 174.08,-89.28 498,-293.18 630.15,-419.46 208.81,-199.5 428.1,-388.27 593.81,-658.95 334.46,-546.29 475.64,-835.67 565.55,-1533.7l21.58 -401.81c-30.33,-525.88 -122.63,-991 -310.29,-1365.8 -166.73,-332.98 -240.53,-463.8 -490.51,-762.27l-131.86 -139.02c-174.05,-200.07 -566.7,-478.73 -805.29,-599.83 -996.27,-505.63 -2067.94,-566.89 -3115.79,-124.43l-350.84 173.97c-302.15,178.14 -645.4,427.39 -856.29,701.21 -50.78,65.93 -108.2,122.46 -159.42,196.1 -50.7,72.93 -85.45,129.58 -135.2,203.38 -87.3,129.48 -328.37,584.43 -331.72,734.82zm13018.65 4266.19l4858.72 0c39.01,0 50.79,-11.78 50.79,-50.78l0 -1185.06c0,-39.01 -11.78,-50.79 -50.79,-50.79l-3453.59 0 0 -3893.75 3453.59 0 0 -1269.69 -4858.72 0 0 6450.07z"/>
   <path class="fil1" d="M16216.65 11225.59c0,39.01 11.78,50.79 50.79,50.79l2607.11 0c39.01,0 50.79,-11.78 50.79,-50.79l0 -1235.84 -2708.69 0 0 1235.84zm-16218.3 -1066.54l0 1185.04c0,80 131.48,50.83 270.87,50.79l2285.46 0c0.59,-1.66 -0.85,-6.58 -0.87,-5.21l-0.28 -25.26c12.16,-67.05 18.08,25.67 18.08,-54.17l0 -1201.98 -2522.47 0c-39,0 -50.79,11.77 -50.79,50.79z"/>
   <path class="fil1" d="M21413.95 1795.95l2657.91 0 0 -1218.91c0,-39.01 -11.79,-50.78 -50.79,-50.78l-2607.12 0 0 1269.69zm-10936.34 2065.39l2708.68 0 0 -1286.64 -2708.68 0 0 1286.64z"/>
  </g>
 </g>
</svg>
